<svg xmlns="http://www.w3.org/2000/svg" width="1400" height="1400" viewBox="0 0 1400 1400">
<rect width="1400" height="1400" fill="white"/>
<style>text{font-family:Arial,sans-serif;fill:#242424} .tick{font-size:13px} .small{font-size:15px}</style>
<text x="55" y="36" font-size="25">F1 · TCES retention on a_monitor</text>
<text x="55" y="61" class="small">Pair 1 · seed 11 · x-axis: log(1 + update); AUC calculations use the linear update grid</text>
<text x="80" y="102" font-size="19">F1 · targeted · observed Pass@1</text>
<line x1="80" y1="560.0" x2="655" y2="560.0" stroke="#e2e5e8"/>
<text x="68" y="565.0" text-anchor="end" class="tick">0.00</text>
<line x1="80" y1="474.0" x2="655" y2="474.0" stroke="#e2e5e8"/>
<text x="68" y="479.0" text-anchor="end" class="tick">0.08</text>
<line x1="80" y1="388.00000000000006" x2="655" y2="388.00000000000006" stroke="#e2e5e8"/>
<text x="68" y="393.00000000000006" text-anchor="end" class="tick">0.16</text>
<line x1="80" y1="302.0" x2="655" y2="302.0" stroke="#e2e5e8"/>
<text x="68" y="307.0" text-anchor="end" class="tick">0.24</text>
<line x1="80" y1="216.00000000000003" x2="655" y2="216.00000000000003" stroke="#e2e5e8"/>
<text x="68" y="221.00000000000003" text-anchor="end" class="tick">0.32</text>
<line x1="80" y1="130.0" x2="655" y2="130.0" stroke="#e2e5e8"/>
<text x="68" y="135.0" text-anchor="end" class="tick">0.40</text>
<text x="80.0" y="583" text-anchor="middle" class="tick">0</text>
<text x="144.53500559365864" y="583" text-anchor="middle" class="tick">1</text>
<text x="182.285563849779" y="583" text-anchor="middle" class="tick">2</text>
<text x="246.82056944343762" y="583" text-anchor="middle" class="tick">5</text>
<text x="303.2544388596375" y="583" text-anchor="middle" class="tick">10</text>
<text x="363.45822944815154" y="583" text-anchor="middle" class="tick">20</text>
<text x="425.7496485863451" y="583" text-anchor="middle" class="tick">40</text>
<text x="489.142255399116" y="583" text-anchor="middle" class="tick">80</text>
<text x="553.1007617357732" y="583" text-anchor="middle" class="tick">160</text>
<text x="617.346173526642" y="583" text-anchor="middle" class="tick">320</text>
<text x="655.0" y="583" text-anchor="middle" class="tick">480</text>
<text x="367.5" y="608" text-anchor="middle" class="small">Stage-B update</text>
<polyline points="80.000,239.460 144.535,295.449 182.286,378.034 246.821,476.016 303.254,554.401 363.458,558.600 425.750,558.600 489.142,558.600 553.101,557.201 617.346,560.000 655.000,560.000" fill="none" stroke="#285b86" stroke-width="2.5"/>
<circle cx="80.000" cy="239.460" r="3" fill="#285b86"/>
<circle cx="144.535" cy="295.449" r="3" fill="#285b86"/>
<circle cx="182.286" cy="378.034" r="3" fill="#285b86"/>
<circle cx="246.821" cy="476.016" r="3" fill="#285b86"/>
<circle cx="303.254" cy="554.401" r="3" fill="#285b86"/>
<circle cx="363.458" cy="558.600" r="3" fill="#285b86"/>
<circle cx="425.750" cy="558.600" r="3" fill="#285b86"/>
<circle cx="489.142" cy="558.600" r="3" fill="#285b86"/>
<circle cx="553.101" cy="557.201" r="3" fill="#285b86"/>
<circle cx="617.346" cy="560.000" r="3" fill="#285b86"/>
<circle cx="655.000" cy="560.000" r="3" fill="#285b86"/>
<polyline points="80.000,228.262 144.535,253.457 182.286,267.454 246.821,448.021 303.254,551.602 363.458,554.401 425.750,551.602 489.142,555.801 553.101,560.000 617.346,560.000 655.000,560.000" fill="none" stroke="#b45a31" stroke-width="2.5" stroke-dasharray="8 5"/>
<circle cx="80.000" cy="228.262" r="3" fill="#b45a31"/>
<circle cx="144.535" cy="253.457" r="3" fill="#b45a31"/>
<circle cx="182.286" cy="267.454" r="3" fill="#b45a31"/>
<circle cx="246.821" cy="448.021" r="3" fill="#b45a31"/>
<circle cx="303.254" cy="551.602" r="3" fill="#b45a31"/>
<circle cx="363.458" cy="554.401" r="3" fill="#b45a31"/>
<circle cx="425.750" cy="551.602" r="3" fill="#b45a31"/>
<circle cx="489.142" cy="555.801" r="3" fill="#b45a31"/>
<circle cx="553.101" cy="560.000" r="3" fill="#b45a31"/>
<circle cx="617.346" cy="560.000" r="3" fill="#b45a31"/>
<circle cx="655.000" cy="560.000" r="3" fill="#b45a31"/>
<text x="770" y="102" font-size="19">F1 · sentinel · observed Pass@1</text>
<line x1="770" y1="560.0" x2="1345" y2="560.0" stroke="#e2e5e8"/>
<text x="758" y="565.0" text-anchor="end" class="tick">0.00</text>
<line x1="770" y1="474.0" x2="1345" y2="474.0" stroke="#e2e5e8"/>
<text x="758" y="479.0" text-anchor="end" class="tick">0.08</text>
<line x1="770" y1="388.00000000000006" x2="1345" y2="388.00000000000006" stroke="#e2e5e8"/>
<text x="758" y="393.00000000000006" text-anchor="end" class="tick">0.16</text>
<line x1="770" y1="302.0" x2="1345" y2="302.0" stroke="#e2e5e8"/>
<text x="758" y="307.0" text-anchor="end" class="tick">0.24</text>
<line x1="770" y1="216.00000000000003" x2="1345" y2="216.00000000000003" stroke="#e2e5e8"/>
<text x="758" y="221.00000000000003" text-anchor="end" class="tick">0.32</text>
<line x1="770" y1="130.0" x2="1345" y2="130.0" stroke="#e2e5e8"/>
<text x="758" y="135.0" text-anchor="end" class="tick">0.40</text>
<text x="770.0" y="583" text-anchor="middle" class="tick">0</text>
<text x="834.5350055936586" y="583" text-anchor="middle" class="tick">1</text>
<text x="872.285563849779" y="583" text-anchor="middle" class="tick">2</text>
<text x="936.8205694434376" y="583" text-anchor="middle" class="tick">5</text>
<text x="993.2544388596375" y="583" text-anchor="middle" class="tick">10</text>
<text x="1053.4582294481515" y="583" text-anchor="middle" class="tick">20</text>
<text x="1115.749648586345" y="583" text-anchor="middle" class="tick">40</text>
<text x="1179.142255399116" y="583" text-anchor="middle" class="tick">80</text>
<text x="1243.1007617357732" y="583" text-anchor="middle" class="tick">160</text>
<text x="1307.346173526642" y="583" text-anchor="middle" class="tick">320</text>
<text x="1345.0" y="583" text-anchor="middle" class="tick">480</text>
<text x="1057.5" y="608" text-anchor="middle" class="small">Stage-B update</text>
<polyline points="770.000,512.409 834.535,522.207 872.286,522.207 936.821,529.206 993.254,555.801 1053.458,560.000 1115.750,560.000 1179.142,560.000 1243.101,560.000 1307.346,560.000 1345.000,560.000" fill="none" stroke="#285b86" stroke-width="2.5"/>
<circle cx="770.000" cy="512.409" r="3" fill="#285b86"/>
<circle cx="834.535" cy="522.207" r="3" fill="#285b86"/>
<circle cx="872.286" cy="522.207" r="3" fill="#285b86"/>
<circle cx="936.821" cy="529.206" r="3" fill="#285b86"/>
<circle cx="993.254" cy="555.801" r="3" fill="#285b86"/>
<circle cx="1053.458" cy="560.000" r="3" fill="#285b86"/>
<circle cx="1115.750" cy="560.000" r="3" fill="#285b86"/>
<circle cx="1179.142" cy="560.000" r="3" fill="#285b86"/>
<circle cx="1243.101" cy="560.000" r="3" fill="#285b86"/>
<circle cx="1307.346" cy="560.000" r="3" fill="#285b86"/>
<circle cx="1345.000" cy="560.000" r="3" fill="#285b86"/>
<polyline points="770.000,242.259 834.535,224.062 872.286,263.255 936.821,459.219 993.254,546.003 1053.458,553.001 1115.750,557.201 1179.142,557.201 1243.101,560.000 1307.346,560.000 1345.000,560.000" fill="none" stroke="#b45a31" stroke-width="2.5" stroke-dasharray="8 5"/>
<circle cx="770.000" cy="242.259" r="3" fill="#b45a31"/>
<circle cx="834.535" cy="224.062" r="3" fill="#b45a31"/>
<circle cx="872.286" cy="263.255" r="3" fill="#b45a31"/>
<circle cx="936.821" cy="459.219" r="3" fill="#b45a31"/>
<circle cx="993.254" cy="546.003" r="3" fill="#b45a31"/>
<circle cx="1053.458" cy="553.001" r="3" fill="#b45a31"/>
<circle cx="1115.750" cy="557.201" r="3" fill="#b45a31"/>
<circle cx="1179.142" cy="557.201" r="3" fill="#b45a31"/>
<circle cx="1243.101" cy="560.000" r="3" fill="#b45a31"/>
<circle cx="1307.346" cy="560.000" r="3" fill="#b45a31"/>
<circle cx="1345.000" cy="560.000" r="3" fill="#b45a31"/>
<text x="80" y="682" font-size="19">F1 · targeted · posterior mean</text>
<line x1="80" y1="1140.0" x2="655" y2="1140.0" stroke="#e2e5e8"/>
<text x="68" y="1145.0" text-anchor="end" class="tick">0.00</text>
<line x1="80" y1="1054.0" x2="655" y2="1054.0" stroke="#e2e5e8"/>
<text x="68" y="1059.0" text-anchor="end" class="tick">0.08</text>
<line x1="80" y1="968.0" x2="655" y2="968.0" stroke="#e2e5e8"/>
<text x="68" y="973.0" text-anchor="end" class="tick">0.16</text>
<line x1="80" y1="882.0" x2="655" y2="882.0" stroke="#e2e5e8"/>
<text x="68" y="887.0" text-anchor="end" class="tick">0.24</text>
<line x1="80" y1="796.0" x2="655" y2="796.0" stroke="#e2e5e8"/>
<text x="68" y="801.0" text-anchor="end" class="tick">0.32</text>
<line x1="80" y1="710.0" x2="655" y2="710.0" stroke="#e2e5e8"/>
<text x="68" y="715.0" text-anchor="end" class="tick">0.40</text>
<text x="80.0" y="1163" text-anchor="middle" class="tick">0</text>
<text x="144.53500559365864" y="1163" text-anchor="middle" class="tick">1</text>
<text x="182.285563849779" y="1163" text-anchor="middle" class="tick">2</text>
<text x="246.82056944343762" y="1163" text-anchor="middle" class="tick">5</text>
<text x="303.2544388596375" y="1163" text-anchor="middle" class="tick">10</text>
<text x="363.45822944815154" y="1163" text-anchor="middle" class="tick">20</text>
<text x="425.7496485863451" y="1163" text-anchor="middle" class="tick">40</text>
<text x="489.142255399116" y="1163" text-anchor="middle" class="tick">80</text>
<text x="553.1007617357732" y="1163" text-anchor="middle" class="tick">160</text>
<text x="617.346173526642" y="1163" text-anchor="middle" class="tick">320</text>
<text x="655.0" y="1163" text-anchor="middle" class="tick">480</text>
<text x="367.5" y="1188" text-anchor="middle" class="small">Stage-B update</text>
<polyline points="80.000,776.068 144.535,820.859 182.286,886.927 246.821,965.312 303.254,1028.021 363.458,1031.380 425.750,1031.380 489.142,1031.380 553.101,1030.260 617.346,1032.500 655.000,1032.500" fill="none" stroke="#285b86" stroke-width="2.5"/>
<circle cx="80.000" cy="776.068" r="3" fill="#285b86"/>
<circle cx="144.535" cy="820.859" r="3" fill="#285b86"/>
<circle cx="182.286" cy="886.927" r="3" fill="#285b86"/>
<circle cx="246.821" cy="965.312" r="3" fill="#285b86"/>
<circle cx="303.254" cy="1028.021" r="3" fill="#285b86"/>
<circle cx="363.458" cy="1031.380" r="3" fill="#285b86"/>
<circle cx="425.750" cy="1031.380" r="3" fill="#285b86"/>
<circle cx="489.142" cy="1031.380" r="3" fill="#285b86"/>
<circle cx="553.101" cy="1030.260" r="3" fill="#285b86"/>
<circle cx="617.346" cy="1032.500" r="3" fill="#285b86"/>
<circle cx="655.000" cy="1032.500" r="3" fill="#285b86"/>
<polyline points="80.000,767.109 144.535,787.266 182.286,798.464 246.821,942.917 303.254,1025.781 363.458,1028.021 425.750,1025.781 489.142,1029.141 553.101,1032.500 617.346,1032.500 655.000,1032.500" fill="none" stroke="#b45a31" stroke-width="2.5" stroke-dasharray="8 5"/>
<circle cx="80.000" cy="767.109" r="3" fill="#b45a31"/>
<circle cx="144.535" cy="787.266" r="3" fill="#b45a31"/>
<circle cx="182.286" cy="798.464" r="3" fill="#b45a31"/>
<circle cx="246.821" cy="942.917" r="3" fill="#b45a31"/>
<circle cx="303.254" cy="1025.781" r="3" fill="#b45a31"/>
<circle cx="363.458" cy="1028.021" r="3" fill="#b45a31"/>
<circle cx="425.750" cy="1025.781" r="3" fill="#b45a31"/>
<circle cx="489.142" cy="1029.141" r="3" fill="#b45a31"/>
<circle cx="553.101" cy="1032.500" r="3" fill="#b45a31"/>
<circle cx="617.346" cy="1032.500" r="3" fill="#b45a31"/>
<circle cx="655.000" cy="1032.500" r="3" fill="#b45a31"/>
<text x="770" y="682" font-size="19">F1 · sentinel · posterior mean</text>
<line x1="770" y1="1140.0" x2="1345" y2="1140.0" stroke="#e2e5e8"/>
<text x="758" y="1145.0" text-anchor="end" class="tick">0.00</text>
<line x1="770" y1="1054.0" x2="1345" y2="1054.0" stroke="#e2e5e8"/>
<text x="758" y="1059.0" text-anchor="end" class="tick">0.08</text>
<line x1="770" y1="968.0" x2="1345" y2="968.0" stroke="#e2e5e8"/>
<text x="758" y="973.0" text-anchor="end" class="tick">0.16</text>
<line x1="770" y1="882.0" x2="1345" y2="882.0" stroke="#e2e5e8"/>
<text x="758" y="887.0" text-anchor="end" class="tick">0.24</text>
<line x1="770" y1="796.0" x2="1345" y2="796.0" stroke="#e2e5e8"/>
<text x="758" y="801.0" text-anchor="end" class="tick">0.32</text>
<line x1="770" y1="710.0" x2="1345" y2="710.0" stroke="#e2e5e8"/>
<text x="758" y="715.0" text-anchor="end" class="tick">0.40</text>
<text x="770.0" y="1163" text-anchor="middle" class="tick">0</text>
<text x="834.5350055936586" y="1163" text-anchor="middle" class="tick">1</text>
<text x="872.285563849779" y="1163" text-anchor="middle" class="tick">2</text>
<text x="936.8205694434376" y="1163" text-anchor="middle" class="tick">5</text>
<text x="993.2544388596375" y="1163" text-anchor="middle" class="tick">10</text>
<text x="1053.4582294481515" y="1163" text-anchor="middle" class="tick">20</text>
<text x="1115.749648586345" y="1163" text-anchor="middle" class="tick">40</text>
<text x="1179.142255399116" y="1163" text-anchor="middle" class="tick">80</text>
<text x="1243.1007617357732" y="1163" text-anchor="middle" class="tick">160</text>
<text x="1307.346173526642" y="1163" text-anchor="middle" class="tick">320</text>
<text x="1345.0" y="1163" text-anchor="middle" class="tick">480</text>
<text x="1057.5" y="1188" text-anchor="middle" class="small">Stage-B update</text>
<polyline points="770.000,994.427 834.535,1002.266 872.286,1002.266 936.821,1007.865 993.254,1029.141 1053.458,1032.500 1115.750,1032.500 1179.142,1032.500 1243.101,1032.500 1307.346,1032.500 1345.000,1032.500" fill="none" stroke="#285b86" stroke-width="2.5"/>
<circle cx="770.000" cy="994.427" r="3" fill="#285b86"/>
<circle cx="834.535" cy="1002.266" r="3" fill="#285b86"/>
<circle cx="872.286" cy="1002.266" r="3" fill="#285b86"/>
<circle cx="936.821" cy="1007.865" r="3" fill="#285b86"/>
<circle cx="993.254" cy="1029.141" r="3" fill="#285b86"/>
<circle cx="1053.458" cy="1032.500" r="3" fill="#285b86"/>
<circle cx="1115.750" cy="1032.500" r="3" fill="#285b86"/>
<circle cx="1179.142" cy="1032.500" r="3" fill="#285b86"/>
<circle cx="1243.101" cy="1032.500" r="3" fill="#285b86"/>
<circle cx="1307.346" cy="1032.500" r="3" fill="#285b86"/>
<circle cx="1345.000" cy="1032.500" r="3" fill="#285b86"/>
<polyline points="770.000,778.307 834.535,763.750 872.286,795.104 936.821,951.875 993.254,1021.302 1053.458,1026.901 1115.750,1030.260 1179.142,1030.260 1243.101,1032.500 1307.346,1032.500 1345.000,1032.500" fill="none" stroke="#b45a31" stroke-width="2.5" stroke-dasharray="8 5"/>
<circle cx="770.000" cy="778.307" r="3" fill="#b45a31"/>
<circle cx="834.535" cy="763.750" r="3" fill="#b45a31"/>
<circle cx="872.286" cy="795.104" r="3" fill="#b45a31"/>
<circle cx="936.821" cy="951.875" r="3" fill="#b45a31"/>
<circle cx="993.254" cy="1021.302" r="3" fill="#b45a31"/>
<circle cx="1053.458" cy="1026.901" r="3" fill="#b45a31"/>
<circle cx="1115.750" cy="1030.260" r="3" fill="#b45a31"/>
<circle cx="1179.142" cy="1030.260" r="3" fill="#b45a31"/>
<circle cx="1243.101" cy="1032.500" r="3" fill="#b45a31"/>
<circle cx="1307.346" cy="1032.500" r="3" fill="#b45a31"/>
<circle cx="1345.000" cy="1032.500" r="3" fill="#b45a31"/>
<line x1="1030" y1="42" x2="1066" y2="42" stroke="#285b86" stroke-width="3"/>
<text x="1075" y="47" class="small">B-S</text>
<line x1="1185" y1="42" x2="1221" y2="42" stroke="#b45a31" stroke-width="3"/>
<text x="1230" y="47" class="small">B-G</text>
</svg>
